<svg height="512pt" viewBox="0 -18 512 512" width="512pt" xmlns="http://www.w3.org/2000/svg"><path d="M461.832 0c-27.66 0-50.168 22.504-50.168 50.168 0 15.934 7.477 30.145 19.094 39.34l-66.969 104.078-72.7-107.61c9.294-9.113 15.075-21.796 15.075-35.808C306.164 22.504 283.66 0 256 0l-21.336 235.332L256 405.168h223.898V325l-10-17 10-13.5V96.957C498.656 89.687 512 71.461 512 50.168 512 22.504 489.496 0 461.832 0zm0 0" fill="#fdae02"/><path d="M205.832 50.168c0 14.016 5.781 26.695 15.078 35.809l-72.7 107.609L81.243 89.508c11.617-9.195 19.094-23.406 19.094-39.34C100.336 22.504 77.828 0 50.168 0 22.504 0 0 22.504 0 50.168c0 21.293 13.344 39.52 32.102 46.789V295l10 16.5-10 13.5v80.168H256V0c-27.66 0-50.168 22.504-50.168 50.168zm0 0" fill="#fdcb02"/><path d="M197.309 252.746L168.762 295H32.102v30h152.593l44.98-66.574zm0 0" fill="#fda502"/><path d="M314.691 252.746L343.238 295h136.66v30H327.305l-44.98-66.574zm0 0" fill="#ff7300"/><path d="M256 165.871L245.332 246 256 336.133l58.574-83.563zm0 0" fill="#f00000"/><path d="M197.309 252.746L256 336.133V165.87zm0 0" fill="#ff4b00"/><path d="M512 365.031H256l-10.668 51.637L256 476.855h256zm0 0" fill="#c3dce6"/><path d="M0 365.031h256v111.824H0zm0 0" fill="#e1f0f5"/></svg>