<svg xmlns="http://www.w3.org/2000/svg" viewBox="0 0 512 512"><path d="M466.089 139.805c-25.928 25.928-67.967 25.928-93.895 0s-25.928-67.967 0-93.895L326.284 0 0 326.284l45.911 45.911c25.928-25.928 67.967-25.928 93.895 0s25.928 67.967 0 93.895l45.91 45.91L512 185.716l-45.911-45.911z" fill="#ffdb0c"/><path d="M466.089 139.805c-25.928 25.928-67.967 25.928-93.895 0L139.806 372.194c25.928 25.928 25.928 67.967 0 93.895L185.716 512 512 185.716l-45.911-45.911z" fill="#fbbf00"/><path d="M180.791 284.996l45.223 24.408-24.559-45.072 15.35-15.348 33.615 72.698-12.127 12.128-72.924-33.391 15.422-15.423zm100.625 5.692l-53.158-53.158 14.6-14.6 53.158 53.158-14.6 14.6zm31.219-31.22l-53.156-53.157 22.908-22.91c10.406-10.406 27.254-8.535 36.313.523 9.434 9.434 11.381 25.457.898 35.938l-8.686 8.686 16.322 16.322-14.599 14.598zm-14.449-43.65l7.711-7.711c1.797-1.797 2.246-5.091-2.021-9.358-4.418-4.417-7.936-3.444-9.732-1.647l-7.338 7.338 11.38 11.378z" fill="#fff"/></svg>