<svg xmlns="http://www.w3.org/2000/svg" width="405.333" height="405.333"><rect width="100%" height="100%" fill="none"/><g class="currentLayer"><path d="M373.333 266.88a231.532 231.532 0 01-72.704-11.563 31.207 31.207 0 00-31.637 6.699l-46.037 34.731a257.105 257.105 0 01-114.389-114.368l33.813-44.928a32.279 32.279 0 007.915-32.64A231.792 231.792 0 01138.667 32c0-17.673-14.327-32-32-32H32C14.327 0 0 14.327 0 32c.235 206.089 167.244 373.098 373.333 373.333 17.673 0 32-14.327 32-32V298.88c0-17.673-14.327-32-32-32z" class="selected" fill="#43a8f6"/></g></svg>